<mxfile host="Electron" agent="Mozilla/5.0 (Windows NT 10.0; Win64; x64) AppleWebKit/537.36 (KHTML, like Gecko) draw.io/27.0.9 Chrome/134.0.6998.205 Electron/35.4.0 Safari/537.36" version="27.0.9">
  <diagram name="Page-1" id="W77ncgFHyiU1G7X_XgXF">
    <mxGraphModel dx="1042" dy="626" grid="1" gridSize="10" guides="1" tooltips="1" connect="1" arrows="1" fold="1" page="1" pageScale="1" pageWidth="4681" pageHeight="3300" math="0" shadow="0">
      <root>
        <mxCell id="0" />
        <mxCell id="1" parent="0" />
        <mxCell id="1PEJ9o637BGqiCjw_QfC-1" value="" style="rounded=0;whiteSpace=wrap;html=1;fillColor=none;strokeColor=default;dashed=1;" parent="1" vertex="1">
          <mxGeometry x="140" y="140" width="150" height="420" as="geometry" />
        </mxCell>
        <mxCell id="1PEJ9o637BGqiCjw_QfC-15" style="edgeStyle=orthogonalEdgeStyle;rounded=0;orthogonalLoop=1;jettySize=auto;html=1;entryX=0;entryY=0.5;entryDx=0;entryDy=0;" parent="1" source="1PEJ9o637BGqiCjw_QfC-3" target="1PEJ9o637BGqiCjw_QfC-13" edge="1">
          <mxGeometry relative="1" as="geometry" />
        </mxCell>
        <mxCell id="1PEJ9o637BGqiCjw_QfC-18" style="edgeStyle=orthogonalEdgeStyle;rounded=0;orthogonalLoop=1;jettySize=auto;html=1;entryX=0;entryY=0.5;entryDx=0;entryDy=0;" parent="1" source="1PEJ9o637BGqiCjw_QfC-3" target="1PEJ9o637BGqiCjw_QfC-12" edge="1">
          <mxGeometry relative="1" as="geometry" />
        </mxCell>
        <mxCell id="1PEJ9o637BGqiCjw_QfC-19" style="edgeStyle=orthogonalEdgeStyle;rounded=0;orthogonalLoop=1;jettySize=auto;html=1;entryX=0;entryY=0.5;entryDx=0;entryDy=0;" parent="1" source="1PEJ9o637BGqiCjw_QfC-3" target="1PEJ9o637BGqiCjw_QfC-14" edge="1">
          <mxGeometry relative="1" as="geometry" />
        </mxCell>
        <mxCell id="1PEJ9o637BGqiCjw_QfC-3" value="" style="image;aspect=fixed;html=1;points=[];align=center;fontSize=12;image=img/lib/azure2/general/Folder_Blank.svg;" parent="1" vertex="1">
          <mxGeometry x="180.5" y="263" width="69.5" height="56.41" as="geometry" />
        </mxCell>
        <mxCell id="1PEJ9o637BGqiCjw_QfC-4" value="" style="image;aspect=fixed;html=1;points=[];align=center;fontSize=12;image=img/lib/azure2/general/Folder_Blank.svg;" parent="1" vertex="1">
          <mxGeometry x="176.07" y="420" width="73.93" height="60" as="geometry" />
        </mxCell>
        <mxCell id="1PEJ9o637BGqiCjw_QfC-6" value="&lt;font style=&quot;font-size: 24px;&quot;&gt;Sources&lt;/font&gt;" style="rounded=0;whiteSpace=wrap;html=1;strokeColor=none;" parent="1" vertex="1">
          <mxGeometry x="155" y="100" width="120" height="60" as="geometry" />
        </mxCell>
        <mxCell id="1PEJ9o637BGqiCjw_QfC-8" value="&lt;b&gt;&lt;font style=&quot;font-size: 17px;&quot;&gt;CRM&lt;/font&gt;&lt;/b&gt;" style="text;html=1;align=center;verticalAlign=middle;whiteSpace=wrap;rounded=0;" parent="1" vertex="1">
          <mxGeometry x="180" y="320" width="60" height="30" as="geometry" />
        </mxCell>
        <mxCell id="1PEJ9o637BGqiCjw_QfC-9" value="&lt;span style=&quot;font-size: 17px;&quot;&gt;&lt;b&gt;ERP&lt;/b&gt;&lt;/span&gt;" style="text;html=1;align=center;verticalAlign=middle;whiteSpace=wrap;rounded=0;" parent="1" vertex="1">
          <mxGeometry x="180.5" y="480" width="60" height="30" as="geometry" />
        </mxCell>
        <mxCell id="1PEJ9o637BGqiCjw_QfC-10" value="" style="rounded=0;whiteSpace=wrap;html=1;fillStyle=hatch;fillColor=#ffe6cc;strokeColor=#d79b00;" parent="1" vertex="1">
          <mxGeometry x="350" y="200" width="180" height="360" as="geometry" />
        </mxCell>
        <mxCell id="1PEJ9o637BGqiCjw_QfC-11" value="&lt;b&gt;&lt;font style=&quot;font-size: 18px;&quot;&gt;Bronze Layer&lt;/font&gt;&lt;/b&gt;" style="rounded=1;whiteSpace=wrap;html=1;fillColor=#ffe6cc;strokeColor=#d79b00;" parent="1" vertex="1">
          <mxGeometry x="350" y="140" width="180" height="50" as="geometry" />
        </mxCell>
        <mxCell id="x_2hvd-aesuYjJd89xK0-9" style="edgeStyle=orthogonalEdgeStyle;rounded=0;orthogonalLoop=1;jettySize=auto;html=1;entryX=0;entryY=0.5;entryDx=0;entryDy=0;" parent="1" source="1PEJ9o637BGqiCjw_QfC-12" target="x_2hvd-aesuYjJd89xK0-3" edge="1">
          <mxGeometry relative="1" as="geometry" />
        </mxCell>
        <mxCell id="1PEJ9o637BGqiCjw_QfC-12" value="crm_cust_info" style="rounded=1;whiteSpace=wrap;html=1;fillColor=#ffe6cc;strokeColor=#d79b00;" parent="1" vertex="1">
          <mxGeometry x="365" y="230" width="150" height="30" as="geometry" />
        </mxCell>
        <mxCell id="x_2hvd-aesuYjJd89xK0-10" style="edgeStyle=orthogonalEdgeStyle;rounded=0;orthogonalLoop=1;jettySize=auto;html=1;exitX=1;exitY=0.5;exitDx=0;exitDy=0;entryX=0;entryY=0.5;entryDx=0;entryDy=0;" parent="1" source="1PEJ9o637BGqiCjw_QfC-13" target="x_2hvd-aesuYjJd89xK0-4" edge="1">
          <mxGeometry relative="1" as="geometry" />
        </mxCell>
        <mxCell id="1PEJ9o637BGqiCjw_QfC-13" value="crm_prd_info" style="rounded=1;whiteSpace=wrap;html=1;fillColor=#ffe6cc;strokeColor=#d79b00;" parent="1" vertex="1">
          <mxGeometry x="365" y="276" width="150" height="30" as="geometry" />
        </mxCell>
        <mxCell id="x_2hvd-aesuYjJd89xK0-11" style="edgeStyle=orthogonalEdgeStyle;rounded=0;orthogonalLoop=1;jettySize=auto;html=1;exitX=1;exitY=0.5;exitDx=0;exitDy=0;entryX=0;entryY=0.5;entryDx=0;entryDy=0;" parent="1" source="1PEJ9o637BGqiCjw_QfC-14" target="x_2hvd-aesuYjJd89xK0-5" edge="1">
          <mxGeometry relative="1" as="geometry" />
        </mxCell>
        <mxCell id="1PEJ9o637BGqiCjw_QfC-14" value="crm_sales_details" style="rounded=1;whiteSpace=wrap;html=1;fillColor=#ffe6cc;strokeColor=#d79b00;" parent="1" vertex="1">
          <mxGeometry x="365" y="320" width="150" height="30" as="geometry" />
        </mxCell>
        <mxCell id="1PEJ9o637BGqiCjw_QfC-16" style="edgeStyle=orthogonalEdgeStyle;rounded=0;orthogonalLoop=1;jettySize=auto;html=1;entryX=0;entryY=0.5;entryDx=0;entryDy=0;" parent="1" source="1PEJ9o637BGqiCjw_QfC-3" target="1PEJ9o637BGqiCjw_QfC-13" edge="1">
          <mxGeometry relative="1" as="geometry">
            <mxPoint x="250" y="291" as="sourcePoint" />
            <mxPoint x="365" y="291" as="targetPoint" />
            <Array as="points">
              <mxPoint x="310" y="291" />
              <mxPoint x="310" y="291" />
            </Array>
          </mxGeometry>
        </mxCell>
        <mxCell id="x_2hvd-aesuYjJd89xK0-12" style="edgeStyle=orthogonalEdgeStyle;rounded=0;orthogonalLoop=1;jettySize=auto;html=1;exitX=1;exitY=0.5;exitDx=0;exitDy=0;" parent="1" source="1PEJ9o637BGqiCjw_QfC-23" target="x_2hvd-aesuYjJd89xK0-6" edge="1">
          <mxGeometry relative="1" as="geometry" />
        </mxCell>
        <mxCell id="1PEJ9o637BGqiCjw_QfC-23" value="erp_cust_az12" style="rounded=1;whiteSpace=wrap;html=1;fillColor=#ffe6cc;strokeColor=#d79b00;" parent="1" vertex="1">
          <mxGeometry x="364.5" y="390" width="150" height="30" as="geometry" />
        </mxCell>
        <mxCell id="x_2hvd-aesuYjJd89xK0-13" style="edgeStyle=orthogonalEdgeStyle;rounded=0;orthogonalLoop=1;jettySize=auto;html=1;exitX=1;exitY=0.5;exitDx=0;exitDy=0;entryX=0;entryY=0.5;entryDx=0;entryDy=0;" parent="1" source="1PEJ9o637BGqiCjw_QfC-24" target="x_2hvd-aesuYjJd89xK0-7" edge="1">
          <mxGeometry relative="1" as="geometry" />
        </mxCell>
        <mxCell id="1PEJ9o637BGqiCjw_QfC-24" value="erp_loc_a101" style="rounded=1;whiteSpace=wrap;html=1;fillColor=#ffe6cc;strokeColor=#d79b00;" parent="1" vertex="1">
          <mxGeometry x="364.5" y="436" width="150" height="30" as="geometry" />
        </mxCell>
        <mxCell id="x_2hvd-aesuYjJd89xK0-14" style="edgeStyle=orthogonalEdgeStyle;rounded=0;orthogonalLoop=1;jettySize=auto;html=1;exitX=1;exitY=0.5;exitDx=0;exitDy=0;" parent="1" source="1PEJ9o637BGqiCjw_QfC-25" target="x_2hvd-aesuYjJd89xK0-8" edge="1">
          <mxGeometry relative="1" as="geometry" />
        </mxCell>
        <mxCell id="1PEJ9o637BGqiCjw_QfC-25" value="erp_px_cat_g1v2" style="rounded=1;whiteSpace=wrap;html=1;fillColor=#ffe6cc;strokeColor=#d79b00;" parent="1" vertex="1">
          <mxGeometry x="364.5" y="480" width="150" height="30" as="geometry" />
        </mxCell>
        <mxCell id="1PEJ9o637BGqiCjw_QfC-26" style="edgeStyle=orthogonalEdgeStyle;rounded=0;orthogonalLoop=1;jettySize=auto;html=1;entryX=0;entryY=0.5;entryDx=0;entryDy=0;" parent="1" target="1PEJ9o637BGqiCjw_QfC-25" edge="1">
          <mxGeometry relative="1" as="geometry">
            <mxPoint x="249.5" y="451" as="sourcePoint" />
          </mxGeometry>
        </mxCell>
        <mxCell id="1PEJ9o637BGqiCjw_QfC-27" style="edgeStyle=orthogonalEdgeStyle;rounded=0;orthogonalLoop=1;jettySize=auto;html=1;entryX=0;entryY=0.5;entryDx=0;entryDy=0;" parent="1" target="1PEJ9o637BGqiCjw_QfC-24" edge="1">
          <mxGeometry relative="1" as="geometry">
            <mxPoint x="249.5" y="451" as="sourcePoint" />
            <mxPoint x="364.5" y="451" as="targetPoint" />
            <Array as="points">
              <mxPoint x="309.5" y="451" />
              <mxPoint x="309.5" y="451" />
            </Array>
          </mxGeometry>
        </mxCell>
        <mxCell id="1PEJ9o637BGqiCjw_QfC-28" style="edgeStyle=orthogonalEdgeStyle;rounded=0;orthogonalLoop=1;jettySize=auto;html=1;entryX=0;entryY=0.5;entryDx=0;entryDy=0;" parent="1" target="1PEJ9o637BGqiCjw_QfC-23" edge="1">
          <mxGeometry relative="1" as="geometry">
            <mxPoint x="249.5" y="451" as="sourcePoint" />
          </mxGeometry>
        </mxCell>
        <mxCell id="1PEJ9o637BGqiCjw_QfC-29" value="&lt;b&gt;&lt;font style=&quot;font-size: 25px;&quot;&gt;Data Flow Diagram&lt;/font&gt;&lt;/b&gt;" style="text;html=1;align=center;verticalAlign=middle;whiteSpace=wrap;rounded=0;" parent="1" vertex="1">
          <mxGeometry x="100" y="30" width="280" height="30" as="geometry" />
        </mxCell>
        <mxCell id="x_2hvd-aesuYjJd89xK0-1" value="" style="rounded=0;whiteSpace=wrap;html=1;fillStyle=hatch;fillColor=#f5f5f5;strokeColor=#666666;fontColor=#333333;" parent="1" vertex="1">
          <mxGeometry x="570" y="200" width="180" height="360" as="geometry" />
        </mxCell>
        <mxCell id="x_2hvd-aesuYjJd89xK0-2" value="&lt;b&gt;&lt;font style=&quot;font-size: 18px;&quot;&gt;Silver Layer&lt;/font&gt;&lt;/b&gt;" style="rounded=1;whiteSpace=wrap;html=1;fillColor=#f5f5f5;strokeColor=#666666;fontColor=#333333;" parent="1" vertex="1">
          <mxGeometry x="570" y="140" width="180" height="50" as="geometry" />
        </mxCell>
        <mxCell id="x_2hvd-aesuYjJd89xK0-3" value="crm_cust_info" style="rounded=1;whiteSpace=wrap;html=1;fillColor=#f5f5f5;strokeColor=#666666;fontColor=#333333;" parent="1" vertex="1">
          <mxGeometry x="585" y="230" width="145" height="30" as="geometry" />
        </mxCell>
        <mxCell id="x_2hvd-aesuYjJd89xK0-4" value="crm_prd_info" style="rounded=1;whiteSpace=wrap;html=1;fillColor=#f5f5f5;strokeColor=#666666;fontColor=#333333;" parent="1" vertex="1">
          <mxGeometry x="585" y="276" width="150" height="30" as="geometry" />
        </mxCell>
        <mxCell id="x_2hvd-aesuYjJd89xK0-5" value="crm_sales_details" style="rounded=1;whiteSpace=wrap;html=1;fillColor=#f5f5f5;strokeColor=#666666;fontColor=#333333;" parent="1" vertex="1">
          <mxGeometry x="585" y="320" width="150" height="30" as="geometry" />
        </mxCell>
        <mxCell id="x_2hvd-aesuYjJd89xK0-6" value="erp_cust_az12" style="rounded=1;whiteSpace=wrap;html=1;fillColor=#f5f5f5;strokeColor=#666666;fontColor=#333333;" parent="1" vertex="1">
          <mxGeometry x="584.5" y="390" width="150" height="30" as="geometry" />
        </mxCell>
        <mxCell id="x_2hvd-aesuYjJd89xK0-7" value="erp_loc_a101" style="rounded=1;whiteSpace=wrap;html=1;fillColor=#f5f5f5;strokeColor=#666666;fontColor=#333333;" parent="1" vertex="1">
          <mxGeometry x="584.5" y="436" width="150" height="30" as="geometry" />
        </mxCell>
        <mxCell id="x_2hvd-aesuYjJd89xK0-8" value="erp_px_cat_g1v2" style="rounded=1;whiteSpace=wrap;html=1;fillColor=#f5f5f5;strokeColor=#666666;fontColor=#333333;" parent="1" vertex="1">
          <mxGeometry x="584.5" y="480" width="150" height="30" as="geometry" />
        </mxCell>
        <mxCell id="rq06fFckFiDAteCisx0A-1" value="" style="rounded=0;whiteSpace=wrap;html=1;fillStyle=hatch;fillColor=#fff2cc;strokeColor=#d6b656;" vertex="1" parent="1">
          <mxGeometry x="800" y="200" width="180" height="360" as="geometry" />
        </mxCell>
        <mxCell id="rq06fFckFiDAteCisx0A-2" value="&lt;span style=&quot;font-size: 18px;&quot;&gt;&lt;b&gt;Gold Layer&lt;/b&gt;&lt;/span&gt;" style="rounded=1;whiteSpace=wrap;html=1;fillColor=#fff2cc;strokeColor=#d6b656;" vertex="1" parent="1">
          <mxGeometry x="800" y="140" width="180" height="50" as="geometry" />
        </mxCell>
        <mxCell id="rq06fFckFiDAteCisx0A-3" value="fact_sales" style="rounded=1;whiteSpace=wrap;html=1;fillColor=#fff2cc;strokeColor=#d6b656;" vertex="1" parent="1">
          <mxGeometry x="815" y="320" width="150" height="30" as="geometry" />
        </mxCell>
        <mxCell id="rq06fFckFiDAteCisx0A-4" value="dim_customers" style="rounded=1;whiteSpace=wrap;html=1;fillColor=#fff2cc;strokeColor=#d6b656;" vertex="1" parent="1">
          <mxGeometry x="815" y="233" width="150" height="30" as="geometry" />
        </mxCell>
        <mxCell id="rq06fFckFiDAteCisx0A-5" value="dim_products" style="rounded=1;whiteSpace=wrap;html=1;fillColor=#fff2cc;strokeColor=#d6b656;" vertex="1" parent="1">
          <mxGeometry x="815" y="450" width="150" height="30" as="geometry" />
        </mxCell>
        <mxCell id="rq06fFckFiDAteCisx0A-17" value="" style="endArrow=classic;html=1;rounded=0;entryX=0;entryY=0.5;entryDx=0;entryDy=0;" edge="1" parent="1" target="rq06fFckFiDAteCisx0A-3">
          <mxGeometry width="50" height="50" relative="1" as="geometry">
            <mxPoint x="735" y="340" as="sourcePoint" />
            <mxPoint x="785" y="290" as="targetPoint" />
          </mxGeometry>
        </mxCell>
        <mxCell id="rq06fFckFiDAteCisx0A-20" value="" style="endArrow=classic;html=1;rounded=0;entryX=0;entryY=0.5;entryDx=0;entryDy=0;" edge="1" parent="1" target="rq06fFckFiDAteCisx0A-4">
          <mxGeometry width="50" height="50" relative="1" as="geometry">
            <mxPoint x="730" y="247.5" as="sourcePoint" />
            <mxPoint x="810" y="242.5" as="targetPoint" />
          </mxGeometry>
        </mxCell>
        <mxCell id="rq06fFckFiDAteCisx0A-21" value="" style="endArrow=classic;html=1;rounded=0;entryX=0;entryY=0.5;entryDx=0;entryDy=0;" edge="1" parent="1" target="rq06fFckFiDAteCisx0A-5">
          <mxGeometry width="50" height="50" relative="1" as="geometry">
            <mxPoint x="734.5" y="290.71" as="sourcePoint" />
            <mxPoint x="819.5" y="291.21" as="targetPoint" />
          </mxGeometry>
        </mxCell>
        <mxCell id="rq06fFckFiDAteCisx0A-22" value="" style="endArrow=classic;html=1;rounded=0;entryX=0;entryY=0.5;entryDx=0;entryDy=0;" edge="1" parent="1" target="rq06fFckFiDAteCisx0A-4">
          <mxGeometry width="50" height="50" relative="1" as="geometry">
            <mxPoint x="735" y="407.5" as="sourcePoint" />
            <mxPoint x="810" y="250" as="targetPoint" />
          </mxGeometry>
        </mxCell>
        <mxCell id="rq06fFckFiDAteCisx0A-25" value="Text" style="edgeLabel;html=1;align=center;verticalAlign=middle;resizable=0;points=[];" vertex="1" connectable="0" parent="rq06fFckFiDAteCisx0A-22">
          <mxGeometry x="0.0646" y="2" relative="1" as="geometry">
            <mxPoint as="offset" />
          </mxGeometry>
        </mxCell>
        <mxCell id="rq06fFckFiDAteCisx0A-23" value="" style="endArrow=classic;html=1;rounded=0;entryX=0;entryY=0.75;entryDx=0;entryDy=0;" edge="1" parent="1" target="rq06fFckFiDAteCisx0A-4">
          <mxGeometry width="50" height="50" relative="1" as="geometry">
            <mxPoint x="734.5" y="452.5" as="sourcePoint" />
            <mxPoint x="814.5" y="447.5" as="targetPoint" />
          </mxGeometry>
        </mxCell>
        <mxCell id="rq06fFckFiDAteCisx0A-24" value="" style="endArrow=classic;html=1;rounded=0;entryX=0;entryY=0.5;entryDx=0;entryDy=0;" edge="1" parent="1" target="rq06fFckFiDAteCisx0A-5">
          <mxGeometry width="50" height="50" relative="1" as="geometry">
            <mxPoint x="734.5" y="497.5" as="sourcePoint" />
            <mxPoint x="814.5" y="492.5" as="targetPoint" />
          </mxGeometry>
        </mxCell>
      </root>
    </mxGraphModel>
  </diagram>
</mxfile>
